<svg xmlns="http://www.w3.org/2000/svg" viewBox="0 0 1000 950" width="1000" height="950">
  <defs>
    <style>
      .bg { fill: #0a1628; }
      .grid { stroke: #1a2d4a; stroke-width: 0.5; }
      .grid-major { stroke: #1e3654; stroke-width: 1; }
      .outline { fill: none; stroke: #4a9eff; stroke-width: 1.5; }
      .outline-thin { fill: none; stroke: #4a9eff; stroke-width: 0.75; }
      .outline-detail { fill: none; stroke: #3a7acc; stroke-width: 0.5; }
      .outline-accent { fill: none; stroke: #ff9f43; stroke-width: 1; }
      .outline-green { fill: none; stroke: #2ecc71; stroke-width: 1; }
      .outline-red { fill: none; stroke: #e74c3c; stroke-width: 0.75; }
      .fill-panel { fill: #1a3a6a; fill-opacity: 0.4; stroke: #4a9eff; stroke-width: 0.75; }
      .fill-body { fill: #0d2240; fill-opacity: 0.6; stroke: #4a9eff; stroke-width: 1.5; }
      .fill-probe { fill: #1a2d4a; fill-opacity: 0.5; stroke: #ff9f43; stroke-width: 0.75; }
      .fill-thruster { fill: #2a1a1a; fill-opacity: 0.5; stroke: #e74c3c; stroke-width: 1; }
      .fill-instrument { fill: #1a3a2a; fill-opacity: 0.4; stroke: #2ecc71; stroke-width: 0.75; }
      .dim { stroke: #6ab0ff; stroke-width: 0.5; fill: none; marker-end: url(#arrowBlue); marker-start: url(#arrowBlueRev); }
      .dim-line { stroke: #6ab0ff; stroke-width: 0.5; stroke-dasharray: 4,3; }
      .label { font-family: 'Courier New', monospace; fill: #8ec8ff; font-size: 9px; }
      .label-sm { font-family: 'Courier New', monospace; fill: #6a9fd4; font-size: 7px; }
      .label-lg { font-family: 'Courier New', monospace; fill: #4a9eff; font-size: 11px; font-weight: bold; }
      .label-title { font-family: 'Courier New', monospace; fill: #ffffff; font-size: 16px; font-weight: bold; letter-spacing: 2px; }
      .label-subtitle { font-family: 'Courier New', monospace; fill: #6ab0ff; font-size: 10px; letter-spacing: 1px; }
      .label-accent { font-family: 'Courier New', monospace; fill: #ff9f43; font-size: 9px; }
      .label-green { font-family: 'Courier New', monospace; fill: #2ecc71; font-size: 8px; }
      .label-red { font-family: 'Courier New', monospace; fill: #e74c3c; font-size: 8px; }
      .label-spec { font-family: 'Courier New', monospace; fill: #8ec8ff; font-size: 8px; }
      .callout { stroke: #4a6a8f; stroke-width: 0.5; fill: none; }
    </style>
    <marker id="arrowBlue" markerWidth="6" markerHeight="4" refX="5" refY="2" orient="auto">
      <path d="M0,0 L6,2 L0,4" fill="none" stroke="#6ab0ff" stroke-width="0.5"/>
    </marker>
    <marker id="arrowBlueRev" markerWidth="6" markerHeight="4" refX="1" refY="2" orient="auto">
      <path d="M6,0 L0,2 L6,4" fill="none" stroke="#6ab0ff" stroke-width="0.5"/>
    </marker>
    <pattern id="gridPattern" width="20" height="20" patternUnits="userSpaceOnUse">
      <line x1="0" y1="0" x2="0" y2="20" class="grid"/>
      <line x1="0" y1="0" x2="20" y2="0" class="grid"/>
    </pattern>
    <pattern id="gridMajor" width="100" height="100" patternUnits="userSpaceOnUse">
      <line x1="0" y1="0" x2="0" y2="100" class="grid-major"/>
      <line x1="0" y1="0" x2="100" y2="0" class="grid-major"/>
    </pattern>
  </defs>

  <!-- Background -->
  <rect class="bg" width="1000" height="950"/>
  <rect fill="url(#gridPattern)" width="1000" height="950" opacity="0.3"/>
  <rect fill="url(#gridMajor)" width="1000" height="950" opacity="0.3"/>

  <!-- Title block -->
  <rect x="20" y="15" width="500" height="55" fill="none" stroke="#4a9eff" stroke-width="1"/>
  <text class="label-title" x="35" y="38">PROSPECTING SATELLITE — SURVEYOR</text>
  <text class="label-subtitle" x="35" y="55">PROJECT DYSON · BOM-0-1 · PHASE 0 · MULTI-MODEL CONSENSUS</text>
  <text class="label-sm" x="540" y="30">SCALE: NOT TO SCALE</text>
  <text class="label-sm" x="540" y="42">DATE: 2026-03-19</text>
  <text class="label-sm" x="540" y="54">SHEET: 1 OF 1</text>

  <!-- ============================================ -->
  <!-- SURVEYOR — TOP VIEW (scaled to fit 1000px canvas) -->
  <!-- ============================================ -->
  <g transform="translate(-40, 0) scale(0.85, 1)">

  <!-- Solar array — left wing -->
  <rect class="fill-panel" x="80" y="180" width="280" height="60" rx="2"/>
  <!-- Panel segments -->
  <line class="outline-detail" x1="150" y1="180" x2="150" y2="240"/>
  <line class="outline-detail" x1="220" y1="180" x2="220" y2="240"/>
  <line class="outline-detail" x1="290" y1="180" x2="290" y2="240"/>
  <!-- Cell lines -->
  <g opacity="0.3">
    <line class="outline-detail" x1="80" y1="195" x2="360" y2="195"/>
    <line class="outline-detail" x1="80" y1="210" x2="360" y2="210"/>
    <line class="outline-detail" x1="80" y1="225" x2="360" y2="225"/>
  </g>
  <text class="label-sm" x="180" y="175" text-anchor="middle">SOLAR ARRAY (PORT)</text>
  <text class="label-green" x="180" y="255" text-anchor="middle">6.5 kW @ 1 AU · Triple-junction GaAs 30%</text>

  <!-- Solar array — right wing -->
  <rect class="fill-panel" x="640" y="180" width="280" height="60" rx="2"/>
  <line class="outline-detail" x1="710" y1="180" x2="710" y2="240"/>
  <line class="outline-detail" x1="780" y1="180" x2="780" y2="240"/>
  <line class="outline-detail" x1="850" y1="180" x2="850" y2="240"/>
  <g opacity="0.3">
    <line class="outline-detail" x1="640" y1="195" x2="920" y2="195"/>
    <line class="outline-detail" x1="640" y1="210" x2="920" y2="210"/>
    <line class="outline-detail" x1="640" y1="225" x2="920" y2="225"/>
  </g>
  <text class="label-sm" x="780" y="175" text-anchor="middle">SOLAR ARRAY (STBD)</text>

  <!-- Array hinges -->
  <rect class="outline-accent" x="355" y="195" width="12" height="30" rx="1"/>
  <rect class="outline-accent" x="633" y="195" width="12" height="30" rx="1"/>
  <text class="label-accent" x="361" y="192">HINGE</text>
  <text class="label-accent" x="633" y="192">HINGE</text>

  <!-- Main bus body — top view -->
  <rect class="fill-body" x="367" y="150" width="266" height="120" rx="4"/>

  <!-- Probe dispenser label above bus -->
  <text class="label-accent" x="500" y="143" text-anchor="middle">PROBE DISPENSER (50× ASSAYER)</text>

  <!-- Probe dispenser grid (5×10) -->
  <g transform="translate(385, 160)">
    <!-- Probe grid 10 cols × 5 rows -->
    <g>
      <!-- Row markers -->
      <rect class="fill-probe" x="0" y="0" width="18" height="18" rx="1"/>
      <rect class="fill-probe" x="22" y="0" width="18" height="18" rx="1"/>
      <rect class="fill-probe" x="44" y="0" width="18" height="18" rx="1"/>
      <rect class="fill-probe" x="66" y="0" width="18" height="18" rx="1"/>
      <rect class="fill-probe" x="88" y="0" width="18" height="18" rx="1"/>
      <rect class="fill-probe" x="110" y="0" width="18" height="18" rx="1"/>
      <rect class="fill-probe" x="132" y="0" width="18" height="18" rx="1"/>
      <rect class="fill-probe" x="154" y="0" width="18" height="18" rx="1"/>
      <rect class="fill-probe" x="176" y="0" width="18" height="18" rx="1"/>
      <rect class="fill-probe" x="198" y="0" width="18" height="18" rx="1"/>

      <rect class="fill-probe" x="0" y="22" width="18" height="18" rx="1"/>
      <rect class="fill-probe" x="22" y="22" width="18" height="18" rx="1"/>
      <rect class="fill-probe" x="44" y="22" width="18" height="18" rx="1"/>
      <rect class="fill-probe" x="66" y="22" width="18" height="18" rx="1"/>
      <rect class="fill-probe" x="88" y="22" width="18" height="18" rx="1"/>
      <rect class="fill-probe" x="110" y="22" width="18" height="18" rx="1"/>
      <rect class="fill-probe" x="132" y="22" width="18" height="18" rx="1"/>
      <rect class="fill-probe" x="154" y="22" width="18" height="18" rx="1"/>
      <rect class="fill-probe" x="176" y="22" width="18" height="18" rx="1"/>
      <rect class="fill-probe" x="198" y="22" width="18" height="18" rx="1"/>

      <rect class="fill-probe" x="0" y="44" width="18" height="18" rx="1"/>
      <rect class="fill-probe" x="22" y="44" width="18" height="18" rx="1"/>
      <rect class="fill-probe" x="44" y="44" width="18" height="18" rx="1"/>
      <rect class="fill-probe" x="66" y="44" width="18" height="18" rx="1"/>
      <rect class="fill-probe" x="88" y="44" width="18" height="18" rx="1"/>
      <rect class="fill-probe" x="110" y="44" width="18" height="18" rx="1"/>
      <rect class="fill-probe" x="132" y="44" width="18" height="18" rx="1"/>
      <rect class="fill-probe" x="154" y="44" width="18" height="18" rx="1"/>
      <rect class="fill-probe" x="176" y="44" width="18" height="18" rx="1"/>
      <rect class="fill-probe" x="198" y="44" width="18" height="18" rx="1"/>

      <rect class="fill-probe" x="0" y="66" width="18" height="18" rx="1"/>
      <rect class="fill-probe" x="22" y="66" width="18" height="18" rx="1"/>
      <rect class="fill-probe" x="44" y="66" width="18" height="18" rx="1"/>
      <rect class="fill-probe" x="66" y="66" width="18" height="18" rx="1"/>
      <rect class="fill-probe" x="88" y="66" width="18" height="18" rx="1"/>
      <rect class="fill-probe" x="110" y="66" width="18" height="18" rx="1"/>
      <rect class="fill-probe" x="132" y="66" width="18" height="18" rx="1"/>
      <rect class="fill-probe" x="154" y="66" width="18" height="18" rx="1"/>
      <rect class="fill-probe" x="176" y="66" width="18" height="18" rx="1"/>
      <rect class="fill-probe" x="198" y="66" width="18" height="18" rx="1"/>

      <rect class="fill-probe" x="0" y="88" width="18" height="18" rx="1"/>
      <rect class="fill-probe" x="22" y="88" width="18" height="18" rx="1"/>
      <rect class="fill-probe" x="44" y="88" width="18" height="18" rx="1"/>
      <rect class="fill-probe" x="66" y="88" width="18" height="18" rx="1"/>
      <rect class="fill-probe" x="88" y="88" width="18" height="18" rx="1"/>
      <rect class="fill-probe" x="110" y="88" width="18" height="18" rx="1"/>
      <rect class="fill-probe" x="132" y="88" width="18" height="18" rx="1"/>
      <rect class="fill-probe" x="154" y="88" width="18" height="18" rx="1"/>
      <rect class="fill-probe" x="176" y="88" width="18" height="18" rx="1"/>
      <rect class="fill-probe" x="198" y="88" width="18" height="18" rx="1"/>
    </g>
  </g>

  <!-- HGA antenna (top of bus) -->
  <circle class="outline" cx="500" cy="135" r="25"/>
  <circle class="outline-thin" cx="500" cy="135" r="18"/>
  <circle class="outline-detail" cx="500" cy="135" r="10"/>
  <circle class="outline-detail" cx="500" cy="135" r="3"/>
  <text class="label-sm" x="530" y="125">HGA 1.5m</text>
  <text class="label-sm" x="530" y="135">Ka-band</text>
  <text class="label-sm" x="530" y="145">2 Mbps @ 1 AU</text>

  <!-- Hall thrusters (bottom of bus) -->
  <rect class="fill-thruster" x="460" y="270" width="20" height="15" rx="2"/>
  <rect class="fill-thruster" x="520" y="270" width="20" height="15" rx="2"/>
  <text class="label-red" x="500" y="298" text-anchor="middle">2× BHT-1500 HALL THRUSTERS</text>
  <text class="label-red" x="500" y="308" text-anchor="middle">90 mN · 1800s Isp · 12 km/s ΔV</text>

  <!-- Dimension lines — overall span (below thrusters) -->
  <line class="dim" x1="80" y1="325" x2="920" y2="325"/>
  <line class="dim-line" x1="80" y1="245" x2="80" y2="330"/>
  <line class="dim-line" x1="920" y1="245" x2="920" y2="330"/>
  <text class="label" x="500" y="340" text-anchor="middle">18 m TIP-TO-TIP (DEPLOYED)</text>

  <!-- Dimension — bus width -->
  <line class="dim" x1="367" y1="355" x2="633" y2="355"/>
  <line class="dim-line" x1="367" y1="290" x2="367" y2="360"/>
  <line class="dim-line" x1="633" y1="290" x2="633" y2="360"/>
  <text class="label" x="500" y="370" text-anchor="middle">1.8 m BUS WIDTH</text>

  <!-- Instrument pod callouts -->
  <circle class="fill-instrument" cx="375" cy="155" r="5"/>
  <line class="callout" x1="375" y1="155" x2="320" y2="120"/>
  <text class="label-green" x="230" y="110">VIS/NIR SPECTROMETER</text>
  <text class="label-green" x="230" y="120">0.4–2.5 μm · 8 kg</text>

  <circle class="fill-instrument" cx="375" cy="265" r="5"/>
  <line class="callout" x1="375" y1="265" x2="320" y2="330"/>
  <text class="label-green" x="230" y="330">THERMAL IR RADIOMETER</text>
  <text class="label-green" x="230" y="340">5–25 μm · 5 kg</text>

  <circle class="fill-instrument" cx="625" cy="155" r="5"/>
  <line class="callout" x1="625" y1="155" x2="680" y2="120"/>
  <text class="label-green" x="685" y="110">NAV + HI-RES CAMERAS</text>
  <text class="label-green" x="685" y="120">1 m/px @ 100 km</text>

  <circle class="fill-instrument" cx="625" cy="265" r="5"/>
  <line class="callout" x1="625" y1="265" x2="680" y2="330"/>
  <text class="label-green" x="685" y="330">LASER ALTIMETER · 6 kg</text>
  <text class="label-green" x="685" y="340">MAGNETOMETER · 1 kg</text>

  <!-- Star trackers -->
  <rect class="outline-detail" x="370" y="200" width="8" height="8" rx="1" transform="rotate(45, 374, 204)"/>
  <rect class="outline-detail" x="622" y="200" width="8" height="8" rx="1" transform="rotate(45, 626, 204)"/>
  <text class="label-sm" x="345" y="210">★</text>
  <text class="label-sm" x="635" y="210">★</text>

  <!-- View label -->
  <text class="label-lg" x="500" y="395" text-anchor="middle">TOP VIEW — SURVEYOR MOTHERSHIP</text>
  </g><!-- end top-view scale group -->

  <!-- ============================================ -->
  <!-- ASSAYER MICRO-PROBE — Side view (bottom left) -->
  <!-- ============================================ -->

  <g transform="translate(50, 420)">
    <text class="label-lg" x="175" y="15">MICRO-PROBE "ASSAYER" — SIDE VIEW</text>

    <!-- Probe body -->
    <rect class="fill-body" x="100" y="40" width="150" height="120" rx="3"/>

    <!-- Deployable solar wings -->
    <rect class="fill-panel" x="20" y="55" width="75" height="35" rx="1"/>
    <rect class="fill-panel" x="255" y="55" width="75" height="35" rx="1"/>
    <line class="outline-detail" x1="45" y1="55" x2="45" y2="90"/>
    <line class="outline-detail" x1="70" y1="55" x2="70" y2="90"/>
    <line class="outline-detail" x1="280" y1="55" x2="280" y2="90"/>
    <line class="outline-detail" x1="305" y1="55" x2="305" y2="90"/>
    <text class="label-sm" x="58" y="50" text-anchor="middle">SOLAR</text>
    <text class="label-sm" x="292" y="50" text-anchor="middle">SOLAR</text>
    <text class="label-green" x="175" y="35" text-anchor="middle">30 W @ 1 AU</text>

    <!-- LIBS optics window (top) -->
    <rect class="fill-instrument" x="155" y="43" width="40" height="15" rx="1"/>
    <text class="label-green" x="175" y="52" text-anchor="middle" font-size="6">LIBS</text>

    <!-- Camera -->
    <circle class="fill-instrument" cx="120" cy="55" r="8"/>
    <circle class="outline-detail" cx="120" cy="55" r="4"/>
    <text class="label-green" x="120" y="72" text-anchor="middle" font-size="6">CAM</text>

    <!-- NIR spectrometer -->
    <rect class="fill-instrument" x="210" y="45" width="30" height="12" rx="1"/>
    <text class="label-green" x="225" y="53" text-anchor="middle" font-size="6">NIR</text>

    <!-- Thrusters (4 corners) -->
    <rect class="fill-thruster" x="95" y="40" width="8" height="6" rx="1"/>
    <rect class="fill-thruster" x="247" y="40" width="8" height="6" rx="1"/>
    <rect class="fill-thruster" x="95" y="154" width="8" height="6" rx="1"/>
    <rect class="fill-thruster" x="247" y="154" width="8" height="6" rx="1"/>
    <text class="label-red" x="85" y="38" font-size="6">THR</text>
    <text class="label-red" x="248" y="38" font-size="6">THR</text>

    <!-- XRF contact plate (bottom) -->
    <rect x="100" y="160" width="150" height="8" fill="#2a3a2a" stroke="#2ecc71" stroke-width="1" rx="1"/>
    <text class="label-green" x="175" y="166" text-anchor="middle" font-size="6">XRF CONTACT PLATE</text>

    <!-- Crushable honeycomb -->
    <rect x="100" y="168" width="150" height="15" fill="none" stroke="#ff9f43" stroke-width="0.5" stroke-dasharray="2,2" rx="1"/>
    <text class="label-accent" x="175" y="179" text-anchor="middle" font-size="6">AL HONEYCOMB ABSORBER (5 cm)</text>

    <!-- Gecko adhesive pads -->
    <line class="outline-accent" x1="110" y1="183" x2="130" y2="183"/>
    <line class="outline-accent" x1="150" y1="183" x2="170" y2="183"/>
    <line class="outline-accent" x1="190" y1="183" x2="210" y2="183"/>
    <line class="outline-accent" x1="230" y1="183" x2="240" y2="183"/>
    <text class="label-accent" x="175" y="195" text-anchor="middle" font-size="6">GECKO-INSPIRED ADHESIVE PADS</text>

    <!-- Dimensions -->
    <line class="dim" x1="20" y1="210" x2="330" y2="210"/>
    <line class="dim-line" x1="20" y1="92" x2="20" y2="215"/>
    <line class="dim-line" x1="330" y1="92" x2="330" y2="215"/>
    <text class="label" x="175" y="224" text-anchor="middle">60 cm DEPLOYED</text>

    <line class="dim" x1="345" y1="40" x2="345" y2="183"/>
    <line class="dim-line" x1="255" y1="40" x2="350" y2="40"/>
    <line class="dim-line" x1="255" y1="183" x2="350" y2="183"/>
    <text class="label" x="360" y="115" transform="rotate(90, 360, 115)" text-anchor="middle">30 cm</text>

    <!-- Detail callout circle pointing to contact surface -->
    <circle cx="175" cy="175" r="22" fill="none" stroke="#6ab0ff" stroke-width="0.75" stroke-dasharray="3,2"/>
    <text class="label" x="205" y="172">A</text>
    <line class="callout" x1="197" y1="175" x2="350" y2="250"/>
  </g>

  <!-- ============================================ -->
  <!-- DETAIL A: Contact Surface (bottom-up view)  -->
  <!-- ============================================ -->

  <g transform="translate(430, 640)">
    <text class="label-lg" x="125" y="-5" text-anchor="middle">DETAIL A — CONTACT SURFACE (BOTTOM VIEW)</text>

    <!-- Outer boundary of contact plate -->
    <rect x="0" y="10" width="250" height="185" fill="#0d2240" fill-opacity="0.3" stroke="#4a9eff" stroke-width="1" rx="3"/>

    <!-- Honeycomb pattern (simplified) -->
    <g opacity="0.35" stroke="#ff9f43" stroke-width="0.4" fill="none">
      <!-- Hex row 1 -->
      <polygon points="30,30 40,25 50,30 50,40 40,45 30,40"/>
      <polygon points="50,30 60,25 70,30 70,40 60,45 50,40"/>
      <polygon points="70,30 80,25 90,30 90,40 80,45 70,40"/>
      <polygon points="90,30 100,25 110,30 110,40 100,45 90,40"/>
      <polygon points="110,30 120,25 130,30 130,40 120,45 110,40"/>
      <polygon points="130,30 140,25 150,30 150,40 140,45 130,40"/>
      <polygon points="150,30 160,25 170,30 170,40 160,45 150,40"/>
      <polygon points="170,30 180,25 190,30 190,40 180,45 170,40"/>
      <polygon points="190,30 200,25 210,30 210,40 200,45 190,40"/>
      <polygon points="210,30 220,25 230,30 230,40 220,45 210,40"/>
      <!-- Hex row 2 (offset) -->
      <polygon points="20,45 30,40 40,45 40,55 30,60 20,55"/>
      <polygon points="40,45 50,40 60,45 60,55 50,60 40,55"/>
      <polygon points="60,45 70,40 80,45 80,55 70,60 60,55"/>
      <polygon points="80,45 90,40 100,45 100,55 90,60 80,55"/>
      <polygon points="100,45 110,40 120,45 120,55 110,60 100,55"/>
      <polygon points="120,45 130,40 140,45 140,55 130,60 120,55"/>
      <polygon points="140,45 150,40 160,45 160,55 150,60 140,55"/>
      <polygon points="160,45 170,40 180,45 180,55 170,60 160,55"/>
      <polygon points="180,45 190,40 200,45 200,55 190,60 180,55"/>
      <polygon points="200,45 210,40 220,45 220,55 210,60 200,55"/>
      <!-- Hex row 3 -->
      <polygon points="30,60 40,55 50,60 50,70 40,75 30,70"/>
      <polygon points="50,60 60,55 70,60 70,70 60,75 50,70"/>
      <polygon points="70,60 80,55 90,60 90,70 80,75 70,70"/>
      <polygon points="90,60 100,55 110,60 110,70 100,75 90,70"/>
      <polygon points="110,60 120,55 130,60 130,70 120,75 110,70"/>
      <polygon points="130,60 140,55 150,60 150,70 140,75 130,70"/>
      <polygon points="150,60 160,55 170,60 170,70 160,75 150,70"/>
      <polygon points="170,60 180,55 190,60 190,70 180,75 170,70"/>
      <polygon points="190,60 200,55 210,60 210,70 200,75 190,70"/>
      <polygon points="210,60 220,55 230,60 230,70 220,75 210,70"/>
      <!-- Rows 4-6 -->
      <polygon points="20,75 30,70 40,75 40,85 30,90 20,85"/>
      <polygon points="40,75 50,70 60,75 60,85 50,90 40,85"/>
      <polygon points="60,75 70,70 80,75 80,85 70,90 60,85"/>
      <polygon points="80,75 90,70 100,75 100,85 90,90 80,85"/>
      <polygon points="100,75 110,70 120,75 120,85 110,90 100,85"/>
      <polygon points="120,75 130,70 140,75 140,85 130,90 120,85"/>
      <polygon points="140,75 150,70 160,75 160,85 150,90 140,85"/>
      <polygon points="160,75 170,70 180,75 180,85 170,90 160,85"/>
      <polygon points="180,75 190,70 200,75 200,85 190,90 180,85"/>
      <polygon points="200,75 210,70 220,75 220,85 210,90 200,85"/>
    </g>

    <!-- XRF sensor window (center) -->
    <rect x="90" y="55" width="70" height="50" fill="#003a3a" fill-opacity="0.6" stroke="#2ecc71" stroke-width="1.5" rx="2"/>
    <rect x="100" y="65" width="50" height="30" fill="#004a4a" fill-opacity="0.4" stroke="#2ecc71" stroke-width="0.75" rx="1"/>
    <text class="label-green" x="125" y="84" text-anchor="middle" font-size="8">XRF</text>
    <text class="label-green" x="125" y="93" text-anchor="middle" font-size="6">SENSOR WINDOW</text>

    <!-- LIBS aperture (above XRF) -->
    <circle cx="125" cy="40" r="8" fill="#003a3a" fill-opacity="0.5" stroke="#2ecc71" stroke-width="1"/>
    <circle cx="125" cy="40" r="3" fill="none" stroke="#2ecc71" stroke-width="0.5"/>
    <text class="label-green" x="140" y="38" font-size="7">LIBS</text>
    <text class="label-green" x="140" y="46" font-size="6">APERTURE</text>

    <!-- Gecko adhesive pads (6 pads around perimeter) -->
    <rect x="10" y="115" width="40" height="20" fill="#2a2a10" fill-opacity="0.5" stroke="#ff9f43" stroke-width="1" rx="2"/>
    <g opacity="0.5" stroke="#ff9f43" stroke-width="0.3">
      <line x1="14" y1="118" x2="14" y2="132"/><line x1="18" y1="118" x2="18" y2="132"/>
      <line x1="22" y1="118" x2="22" y2="132"/><line x1="26" y1="118" x2="26" y2="132"/>
      <line x1="30" y1="118" x2="30" y2="132"/><line x1="34" y1="118" x2="34" y2="132"/>
      <line x1="38" y1="118" x2="38" y2="132"/><line x1="42" y1="118" x2="42" y2="132"/>
      <line x1="46" y1="118" x2="46" y2="132"/>
    </g>

    <rect x="65" y="115" width="40" height="20" fill="#2a2a10" fill-opacity="0.5" stroke="#ff9f43" stroke-width="1" rx="2"/>
    <g opacity="0.5" stroke="#ff9f43" stroke-width="0.3">
      <line x1="69" y1="118" x2="69" y2="132"/><line x1="73" y1="118" x2="73" y2="132"/>
      <line x1="77" y1="118" x2="77" y2="132"/><line x1="81" y1="118" x2="81" y2="132"/>
      <line x1="85" y1="118" x2="85" y2="132"/><line x1="89" y1="118" x2="89" y2="132"/>
      <line x1="93" y1="118" x2="93" y2="132"/><line x1="97" y1="118" x2="97" y2="132"/>
      <line x1="101" y1="118" x2="101" y2="132"/>
    </g>

    <rect x="145" y="115" width="40" height="20" fill="#2a2a10" fill-opacity="0.5" stroke="#ff9f43" stroke-width="1" rx="2"/>
    <g opacity="0.5" stroke="#ff9f43" stroke-width="0.3">
      <line x1="149" y1="118" x2="149" y2="132"/><line x1="153" y1="118" x2="153" y2="132"/>
      <line x1="157" y1="118" x2="157" y2="132"/><line x1="161" y1="118" x2="161" y2="132"/>
      <line x1="165" y1="118" x2="165" y2="132"/><line x1="169" y1="118" x2="169" y2="132"/>
      <line x1="173" y1="118" x2="173" y2="132"/><line x1="177" y1="118" x2="177" y2="132"/>
      <line x1="181" y1="118" x2="181" y2="132"/>
    </g>

    <rect x="200" y="115" width="40" height="20" fill="#2a2a10" fill-opacity="0.5" stroke="#ff9f43" stroke-width="1" rx="2"/>
    <g opacity="0.5" stroke="#ff9f43" stroke-width="0.3">
      <line x1="204" y1="118" x2="204" y2="132"/><line x1="208" y1="118" x2="208" y2="132"/>
      <line x1="212" y1="118" x2="212" y2="132"/><line x1="216" y1="118" x2="216" y2="132"/>
      <line x1="220" y1="118" x2="220" y2="132"/><line x1="224" y1="118" x2="224" y2="132"/>
      <line x1="228" y1="118" x2="228" y2="132"/><line x1="232" y1="118" x2="232" y2="132"/>
      <line x1="236" y1="118" x2="236" y2="132"/>
    </g>

    <!-- Pad labels -->
    <text class="label-accent" x="125" y="150" text-anchor="middle" font-size="7">GECKO-INSPIRED DRY ADHESIVE PADS (×4)</text>
    <text class="label-accent" x="125" y="160" text-anchor="middle" font-size="6">Microfiber arrays · grip on irregular regolith</text>

    <!-- Honeycomb label -->
    <text class="label-accent" x="125" y="170" text-anchor="middle" font-size="7">AL HONEYCOMB CRUSHABLE ABSORBER · 5 cm · ≤2 m/s</text>

    <!-- Dimension integrated into bounding box -->
    <text class="label" x="125" y="185" text-anchor="middle" font-size="7">20 × 20 cm CONTACT FACE</text>
  </g>

  <!-- ============================================ -->
  <!-- SPECS TABLE (bottom right) -->
  <!-- ============================================ -->

  <g transform="translate(700, 440)">
    <text class="label-lg" x="280" y="0" text-anchor="end">SPECIFICATIONS</text>
    <line class="outline-thin" x1="0" y1="5" x2="280" y2="5"/>

    <text class="label-lg" x="0" y="22">SURVEYOR</text>
    <text class="label-spec" x="0" y="36">Dry mass ......... 850 kg</text>
    <text class="label-spec" x="0" y="47">Probes ........... 50 × 8 kg</text>
    <text class="label-spec" x="0" y="58">Xenon ............ 350 kg</text>
    <text class="label-spec" x="0" y="69">Wet mass ......... 1,600 kg</text>
    <text class="label-spec" x="0" y="80">Stowed ........... 1.8×1.8×2.4 m</text>
    <text class="label-spec" x="0" y="91">Deployed ......... 18 m span</text>
    <text class="label-spec" x="0" y="102">Power ............ 6.5 kW @1AU</text>
    <text class="label-spec" x="0" y="113">Propulsion ....... 2× BHT-1500</text>
    <text class="label-spec" x="0" y="124">Delta-V .......... 12 km/s</text>
    <text class="label-spec" x="0" y="135">Comms ............ Ka, 2 Mbps</text>
    <text class="label-spec" x="0" y="146">Life ............. 12 years</text>
    <text class="label-spec" x="0" y="157">Pointing ......... 0.01° (3σ)</text>
    <text class="label-spec" x="0" y="168">Survey rate ...... 50/year</text>

    <line class="outline-thin" x1="0" y1="176" x2="280" y2="176"/>
    <text class="label-lg" x="0" y="192">ASSAYER PROBE</text>
    <text class="label-spec" x="0" y="206">Mass ............. 8.0 kg</text>
    <text class="label-spec" x="0" y="217">Propellant ....... 2.5 kg AF-M315E</text>
    <text class="label-spec" x="0" y="228">Stowed ........... 20×20×30 cm</text>
    <text class="label-spec" x="0" y="239">Deployed ......... 60×60×30 cm</text>
    <text class="label-spec" x="0" y="250">Power ............ 30 W @1AU</text>
    <text class="label-spec" x="0" y="261">Delta-V .......... 500 m/s</text>
    <text class="label-spec" x="0" y="272">Instruments ...... XRF LIBS NIR</text>
    <text class="label-spec" x="0" y="283">Duration ......... 60 days</text>

    <line class="outline-thin" x1="0" y1="291" x2="280" y2="291"/>
    <text class="label-lg" x="0" y="307">FLEET</text>
    <text class="label-spec" x="0" y="321">Surveyors ........ 12 units</text>
    <text class="label-spec" x="0" y="332">Total probes ..... 600</text>
    <text class="label-spec" x="0" y="343">NEO (0.8-1.5 AU). 6 units</text>
    <text class="label-spec" x="0" y="354">Inner belt ....... 4 units</text>
    <text class="label-spec" x="0" y="365">Outer belt ....... 2 units</text>
    <text class="label-spec" x="0" y="376">Budget ........... ~$250M</text>
  </g>

  <!-- ============================================ -->
  <!-- INSTRUMENT LEGEND (bottom center) -->
  <!-- ============================================ -->

  <g transform="translate(50, 910)">
    <rect x="0" y="-8" width="8" height="8" fill="#1a3a2a" stroke="#2ecc71" stroke-width="0.75" rx="1"/>
    <text class="label-green" x="12" y="0">INSTRUMENTS</text>

    <rect x="120" y="-8" width="8" height="8" fill="#2a1a1a" stroke="#e74c3c" stroke-width="0.75" rx="1"/>
    <text class="label-red" x="132" y="0">PROPULSION</text>

    <rect x="230" y="-8" width="8" height="8" fill="#1a2d4a" stroke="#ff9f43" stroke-width="0.75" rx="1"/>
    <text class="label-accent" x="242" y="0">PROBES / MECHANISMS</text>

    <rect x="410" y="-8" width="8" height="8" fill="#1a3a6a" stroke="#4a9eff" stroke-width="0.75" rx="1"/>
    <text class="label" x="422" y="0">SOLAR ARRAYS</text>

    <text class="label-sm" x="550" y="0">MULTI-MODEL CONSENSUS DESIGN · CLAUDE 4.6 / GEMINI 3 PRO / GPT-5.2</text>
  </g>

  <!-- Border -->
  <rect x="5" y="5" width="990" height="940" fill="none" stroke="#4a9eff" stroke-width="2" rx="2"/>
  <rect x="8" y="8" width="984" height="934" fill="none" stroke="#1e3654" stroke-width="0.5" rx="1"/>

</svg>
